<svg width="204" height="49" viewBox="0 0 204 49" fill="none" xmlns="http://www.w3.org/2000/svg">
<g clip-path="url(#clip0_769_1305)">
<path d="M75.2272 41.8666L77.1749 41.196V14.4519C77.2844 14.4119 77.3978 14.3841 77.5132 14.3687C81.895 14.3687 86.2767 14.3499 90.6571 14.4022C92.4926 14.4237 94.2011 15.0273 95.7907 15.9569C99.2938 18.0024 99.9162 24.0051 96.096 26.5671C94.8031 27.4396 93.3731 28.0819 91.8675 28.4664C92.4555 28.555 93.0502 28.6113 93.6303 28.7347C95.7247 29.1827 97.6209 30.0465 99.0229 31.742C100.89 33.9969 100.569 37.2805 98.3411 39.1705C96.7038 40.5615 94.7403 41.2308 92.6828 41.5715C91.2073 41.8181 89.7157 41.9526 88.2205 41.974C83.9722 42.0276 79.7226 41.9968 75.473 41.9968C75.3924 41.9968 75.3117 41.9847 75.2311 41.978L75.2272 41.8666ZM80.9872 28.2639C81.0585 28.2936 81.133 28.3148 81.2091 28.3269C84.0039 28.3269 86.8013 28.3967 89.5934 28.2961C91.6971 28.2196 93.4334 27.333 94.3504 25.2633C95.1684 23.4256 95.1948 21.4766 94.9014 19.5397C94.3993 16.2225 92.8242 14.9079 89.53 14.9066H80.9832L80.9872 28.2639ZM80.9872 41.3931C81.1036 41.4174 81.2214 41.4344 81.34 41.4441C83.2335 41.4441 85.1284 41.4924 87.022 41.4294C88.8719 41.3677 90.6968 41.1437 92.4688 40.5213C96.8294 38.9921 97.1545 33.1867 94.4244 30.9359C92.955 29.7286 91.3324 28.9748 89.4243 28.9654C86.7815 28.9533 84.1387 28.9654 81.4959 28.9654C81.325 28.9753 81.1548 28.9941 80.9858 29.0217L80.9872 41.3931Z" fill="#901A11"/>
<path d="M26.3394 42.0088H23.1073C23.7323 40.265 24.3362 38.5977 24.9374 36.9237C27.4389 29.9593 29.9918 23.0124 32.4218 16.0212C33.9044 11.7544 36.7349 8.83018 40.6475 6.87581C43.7753 5.31313 47.059 4.38893 50.5818 4.62098C52.1675 4.76719 53.1321 5.40031 52.7225 6.26952C52.3128 7.13872 48.453 7.36541 47.0299 7.34261C45.5129 7.32517 43.9973 7.17628 42.4843 7.05287C41.073 6.93886 39.8798 7.38687 39.0962 8.57666C38.2954 9.79462 37.4564 11.0381 36.945 12.3915C35.3065 16.7268 33.8119 21.1184 32.2646 25.4886C32.2491 25.5771 32.2429 25.667 32.2461 25.7568C32.9253 25.2699 33.549 24.7924 34.2018 24.3632C36.8446 22.6194 39.6975 21.5463 42.8926 21.6456C43.5515 21.6621 44.204 21.7815 44.8271 21.9997C46.8951 22.7535 47.9126 24.6113 47.3378 26.8903C46.8806 28.7226 46.1882 30.4972 45.5618 32.2826C44.4836 35.3543 43.367 38.4099 42.2887 41.4816C42.1394 41.9069 41.9478 42.0866 41.4959 42.0651C40.6872 42.0262 39.8732 42.0544 38.9548 42.0544C39.042 41.7539 39.0962 41.5299 39.1729 41.3153C40.6264 37.2443 42.1183 33.184 43.5335 29.1009C43.8587 28.1782 44.0544 27.2137 44.1149 26.2357C44.2166 24.3471 43.0736 23.0674 41.2078 22.8072C39.412 22.5564 37.7365 23.054 36.1733 23.8534C34.844 24.5335 33.5939 25.3813 32.3412 26.2102C32.0292 26.4475 31.7949 26.7747 31.6686 27.1492C29.9535 31.8887 28.2524 36.6281 26.5654 41.3676C26.5033 41.5782 26.424 41.7835 26.3394 42.0088Z" fill="#901A11"/>
<path d="M166.996 41.648C163.837 41.6158 162.163 40.8767 161.661 37.3489C161.285 37.86 160.951 38.3509 160.58 38.811C157.553 42.5547 152.537 43.2684 148.767 40.4126C146.857 38.9679 145.74 36.9935 145.707 34.52C145.652 30.453 145.647 26.3846 145.623 22.3136C145.623 22.1593 145.638 22.0064 145.65 21.7985H148.899V22.5711C148.899 26.2156 148.881 29.8587 148.907 33.5032C148.925 36.0639 149.881 38.2141 151.891 39.7969C154.137 41.5675 157.271 41.3019 159.555 39.1423C160.241 38.4931 160.823 37.7191 161.384 36.9505C161.599 36.6219 161.714 36.236 161.714 35.8412C161.76 31.3933 161.776 26.9453 161.801 22.4973C161.801 22.2787 161.82 22.0587 161.832 21.7971H165.003V22.6087C165.003 27.1022 164.988 31.5958 165.015 36.0894C165.026 37.0044 165.114 37.9168 165.279 38.8164C165.493 39.9525 165.892 41.0149 166.996 41.648Z" fill="#901A11"/>
<path d="M144.583 41.8612C143.46 41.6989 142.321 41.6104 141.219 41.3529C139.925 41.0524 139.459 39.978 139.402 38.7734C139.324 37.1477 139.377 35.5139 139.374 33.8828C139.387 33.5937 139.354 33.3045 139.278 33.0257C139.174 33.2162 139.067 33.4053 138.966 33.5985C137.667 36.0867 136.108 38.3683 133.895 40.1228C131.912 41.6989 129.703 42.438 127.17 41.9216C125.266 41.534 123.896 40.4703 123.31 38.5763C122.725 36.6822 123.548 35.1102 124.782 33.7648C126.441 31.958 128.651 31.2162 130.932 30.6072C133.213 29.9982 135.511 29.341 137.756 28.5751C139.505 27.9768 139.715 27.4094 139.287 25.5704C138.934 24.06 138.001 23.1667 136.492 22.9225C134.349 22.5778 132.346 23.1908 130.368 23.9017C128.565 24.551 126.779 25.2431 124.986 25.9138C124.854 25.9648 124.71 26.005 124.387 26.111C125.514 24.7052 126.513 23.4417 127.541 22.2009C127.681 22.0319 127.955 21.9568 128.182 21.8857C131.293 20.9172 134.331 21.1908 137.231 22.6207C138.394 23.1976 139.483 23.9185 140.471 24.7669C141.979 26.0613 142.609 27.8078 142.585 29.8306C142.566 32.3094 142.595 34.7936 142.688 37.2684C142.722 38.147 142.961 39.027 143.188 39.8841C143.282 40.2658 143.458 40.6215 143.705 40.9253C143.951 41.229 144.261 41.4732 144.612 41.6399L144.583 41.8612ZM139.525 28.4369C138.185 28.9909 137.014 29.5784 135.789 29.9553C133.961 30.5173 132.09 30.9198 130.24 31.412C129.083 31.7192 127.976 32.1471 127.081 32.9989C126.412 33.6374 125.968 34.3832 126.042 35.357C126.267 38.2905 129.329 40.2141 131.963 39.0135C135.414 37.4415 137.659 34.6702 139.06 31.1853C139.4 30.3349 139.382 29.3356 139.525 28.4369Z" fill="#901A11"/>
<path d="M8.04334 42.0611C10.9187 32.7145 13.7875 23.392 16.68 13.9864C15.6044 13.9086 14.6014 13.8174 13.5972 13.7677C10.1682 13.5987 6.73649 13.3492 3.31539 13.8415C1.0307 14.3257 0.762445 15.1346 1.16019 15.7288C1.67685 16.4974 3.34842 17.2928 4.47821 17.5115C4.53371 17.5222 4.81649 17.3773 5.00677 17.2674C6.32817 16.5323 7.68393 15.8764 9.22336 15.8549C9.81332 15.8619 10.3986 15.9619 10.9584 16.1513C11.4869 16.3163 11.8833 16.7093 11.8833 17.325C11.8926 17.9743 11.4116 18.2492 10.9108 18.4558C9.76249 18.9293 8.57455 18.7992 7.39455 18.6288C6.7682 18.5376 4.50597 18.0373 4.50597 18.0373C4.37383 18.0682 2.23184 19.5665 0.13478 21.1707C0.817942 20.2774 3.14757 18.4773 3.95891 17.8723C3.50699 17.6926 3.09206 17.5598 2.70754 17.3653C2.11951 17.0702 1.51829 16.7871 0.980477 16.4008C-0.351491 15.4324 -0.326378 13.8643 1.02013 12.8959C3.09208 11.4204 9.57748 11.8898 12.1066 11.9099C13.798 11.922 15.4894 11.9099 17.3077 11.9099C17.5006 11.2876 17.745 10.5069 17.9855 9.72487C18.382 8.45057 18.8471 8.0656 20.15 7.95427C20.5002 7.92476 20.8503 7.8872 21.2071 7.85501C22.3422 7.75306 22.9117 8.52569 22.4558 9.59878C21.5005 11.8308 20.5107 14.0467 19.5593 16.2815C15.9836 24.6873 12.4114 33.0932 8.84279 41.4991C8.70933 41.7982 8.66308 42.2891 8.04334 42.0611ZM5.15874 17.6765C6.82237 18.0789 8.46223 18.6221 10.1946 18.2841C10.5196 18.2262 10.8324 18.1123 11.1196 17.9474C11.6481 17.6309 11.7155 17.1305 11.2358 16.755C10.8924 16.484 10.4868 16.3059 10.0571 16.2372C8.23891 16.0051 6.68627 16.7764 5.15874 17.6765ZM20.3033 12.0763C21.1146 10.6008 21.0723 10.527 19.5104 10.4988C19.4232 10.4988 19.3215 10.464 19.2462 10.4988C19.0625 10.5847 18.8127 10.6558 18.7308 10.81C18.5379 11.2218 18.3698 11.6451 18.2274 12.0776L20.3033 12.0763ZM17.4887 14.1084C17.3478 14.4286 17.2243 14.7564 17.1187 15.0903C17.098 15.1703 17.0954 15.2539 17.1112 15.335C17.127 15.4161 17.1608 15.4925 17.2099 15.5585C17.6591 15.9716 18.7691 15.7087 19.0294 15.144C19.1748 14.8288 19.2937 14.5001 19.4562 14.1084H17.4887Z" fill="#901A11"/>
<path d="M105.042 27.8977C104.597 30.7038 105.125 33.2631 106.411 35.6172C108.314 39.1128 111.311 40.8874 115.235 40.5306C118.195 40.2624 120.478 38.5937 122.098 36.0438C122.194 35.8949 122.289 35.7473 122.393 35.6052C122.412 35.5797 122.472 35.585 122.727 35.53C122.401 36.1336 122.199 36.6581 121.871 37.0914C119.452 40.3107 116.173 41.9109 112.245 42.202C106.864 42.6044 103.02 39.0605 101.974 34.1189C101.342 31.1384 102.25 28.4396 104.123 26.0479C107.76 21.4041 114.59 20.036 118.483 22.0306C122.376 24.0252 120.818 26.4946 119.849 27.0982C118.757 27.781 117.521 27.887 116.282 27.8923C112.825 27.9098 109.367 27.8923 105.91 27.8923L105.042 27.8977ZM105.174 27.2807C105.174 27.2807 110.234 27.168 112.541 27.0915C115.871 27.0218 117.082 26.7669 117.337 26.1418C117.702 25.2498 116.953 24.0024 115.638 23.1291C113.143 21.6738 109.318 22.1406 107.112 24.1271C106.168 24.9551 105.492 26.0547 105.177 27.2807H105.174Z" fill="#901A11"/>
<path d="M67.1085 35.4066C66.5218 36.4207 65.6285 37.141 64.7234 37.8278C61.3644 40.3764 57.6671 42.033 53.3937 42.0035C50.0189 41.9806 47.6337 40.1094 46.9836 37.0283C46.5727 35.0753 46.9836 33.2135 47.7183 31.4053C48.6658 29.0834 50.3836 27.3813 52.178 25.7528C54.7376 23.435 57.6685 21.8039 61.0658 21.1613C63.177 20.7604 65.3544 20.9175 67.3886 21.6174C69.6747 22.39 70.1041 24.5966 68.3136 26.2384C67.1851 27.2713 65.7779 27.5986 64.3362 27.6227C60.5716 27.6844 56.8043 27.6737 53.0409 27.6522C52.4833 27.6522 52.2269 27.8454 52.0063 28.3336C51.2134 30.1042 50.7047 31.9285 50.7113 33.8936C50.7285 38.08 53.8522 40.9223 57.9446 40.3496C61.116 39.9042 63.805 38.3818 66.1069 36.1471C66.3898 35.8457 66.6571 35.5296 66.9077 35.2001C66.9711 35.2698 67.0398 35.3382 67.1085 35.4066ZM52.7145 27.0741C55.4326 26.9936 58.0688 26.9279 60.7037 26.83C61.8229 26.7884 62.958 26.775 64.0547 26.5738C65.6748 26.276 66.1941 24.6368 65.1409 23.3545C64.5304 22.6073 63.6874 22.268 62.7717 22.1593C59.8976 21.8226 57.3302 22.6301 55.0626 24.4249C54.123 25.1504 53.3264 26.0492 52.7145 27.0741Z" fill="#901A11"/>
<path d="M183.492 21.9206H187.302L195.814 38.1122C198.294 32.6394 200.722 27.2833 203.148 21.9273H204C203.577 22.8327 203.181 23.6938 202.775 24.5496C200.149 30.0828 197.554 35.6306 194.872 41.1302C194.066 42.7828 193.006 44.3119 192.026 45.8719C190.729 47.935 188.722 48.7291 186.439 48.9638C185.748 49.0362 185.042 48.9759 184.309 48.9759V44.7908C185.296 44.9638 186.251 45.2093 187.216 45.2885C189.827 45.5044 192.092 44.8015 193.722 42.5601C194.058 42.0987 194.094 41.7137 193.801 41.1758C190.464 35.0109 187.143 28.8366 183.841 22.6529C183.732 22.4437 183.637 22.2237 183.492 21.9206Z" fill="#901A11"/>
<path d="M170.68 24.0761H168.103L173.87 16.8931V21.7328H182.012C181.313 22.5604 180.737 23.274 180.117 23.9474C179.999 24.0748 179.707 24.0681 179.496 24.0694C177.888 24.0802 176.281 24.0761 174.673 24.0775H173.925C173.903 24.2921 173.875 24.4396 173.873 24.5885C173.829 28.9024 173.787 33.2157 173.749 37.5287C173.729 40.1604 175.347 41.4884 177.883 40.866C180.454 40.2342 182.299 38.5521 183.809 36.4328C183.985 36.1873 184.184 35.9593 184.372 35.7232L184.511 35.8238C184.511 35.8815 184.532 35.9512 184.511 35.9955C183.335 38.0934 181.81 39.864 179.714 41.0471C178.86 41.543 177.913 41.8515 176.934 41.9527C175.956 42.0539 174.967 41.9455 174.032 41.6346C172.041 41.0028 171.01 39.5045 170.729 37.4455C170.693 37.1124 170.679 36.7772 170.686 36.4422C170.686 32.6193 170.686 28.7968 170.686 24.9748L170.68 24.0761Z" fill="#901A11"/>
<path d="M21.3234 14.2775C21.6379 13.5585 21.8361 12.9871 22.136 12.4787C22.2457 12.2936 22.5959 12.1836 22.8443 12.1662C24.5542 12.0441 26.2799 12.0669 27.9726 11.8174C31.3924 11.2809 32.6702 10.2829 33.2292 8.72288C33.7128 7.33859 35.1029 2.78601 35.6077 1.86047C36.349 0.486912 37.4695 -0.179747 38.454 0.0415777C39.6432 0.30985 38.5861 2.6626 38.2373 3.3856C35.4319 9.28089 30.996 13.0501 24.4947 14.0199C23.4891 14.1688 22.4756 14.1876 21.3234 14.2775Z" fill="#901A11"/>
</g>
<defs>
<clipPath id="clip0_769_1305">
<rect width="204" height="49" fill="white"/>
</clipPath>
</defs>
</svg>
